<svg aria-roledescription="sequence" role="graphics-document document" viewBox="-50 -10 1890 1760" style="max-width: 1890px;" xmlns="http://www.w3.org/2000/svg" width="100%" id="export-svg"><style xmlns="http://www.w3.org/1999/xhtml">@import url("https://cdnjs.cloudflare.com/ajax/libs/font-awesome/6.2.0/css/all.min.css"); p {margin: 0;}</style><g><rect class="actor actor-bottom" ry="3" rx="3" name="Kafka" height="65" width="150" stroke="#666" fill="#eaeaea" y="1674" x="1640"/><text class="actor actor-box" alignment-baseline="central" dominant-baseline="central" style="text-anchor: middle; font-size: 16px; font-weight: 400;" y="1706.5" x="1715"><tspan dy="0" x="1715">Kafka</tspan></text></g><g><rect class="actor actor-bottom" ry="3" rx="3" name="MongoDBHelper" height="65" width="150" stroke="#666" fill="#eaeaea" y="1674" x="1440"/><text class="actor actor-box" alignment-baseline="central" dominant-baseline="central" style="text-anchor: middle; font-size: 16px; font-weight: 400;" y="1706.5" x="1515"><tspan dy="0" x="1515">MongoDBHelper</tspan></text></g><g><rect class="actor actor-bottom" ry="3" rx="3" name="EventServices" height="65" width="150" stroke="#666" fill="#eaeaea" y="1674" x="1193"/><text class="actor actor-box" alignment-baseline="central" dominant-baseline="central" style="text-anchor: middle; font-size: 16px; font-weight: 400;" y="1706.5" x="1268"><tspan dy="0" x="1268">EventServices</tspan></text></g><g><rect class="actor actor-bottom" ry="3" rx="3" name="EventProcessor" height="65" width="150" stroke="#666" fill="#eaeaea" y="1674" x="892"/><text class="actor actor-box" alignment-baseline="central" dominant-baseline="central" style="text-anchor: middle; font-size: 16px; font-weight: 400;" y="1706.5" x="967"><tspan dy="0" x="967">EventProcessor</tspan></text></g><g><rect class="actor actor-bottom" ry="3" rx="3" name="Metrics" height="65" width="150" stroke="#666" fill="#eaeaea" y="1674" x="692"/><text class="actor actor-box" alignment-baseline="central" dominant-baseline="central" style="text-anchor: middle; font-size: 16px; font-weight: 400;" y="1706.5" x="767"><tspan dy="0" x="767">Metrics</tspan></text></g><g><rect class="actor actor-bottom" ry="3" rx="3" name="ConfigLoader" height="65" width="150" stroke="#666" fill="#eaeaea" y="1674" x="492"/><text class="actor actor-box" alignment-baseline="central" dominant-baseline="central" style="text-anchor: middle; font-size: 16px; font-weight: 400;" y="1706.5" x="567"><tspan dy="0" x="567">ConfigLoader</tspan></text></g><g><rect class="actor actor-bottom" ry="3" rx="3" name="KafkaTradeConsumer" height="65" width="176" stroke="#666" fill="#eaeaea" y="1674" x="266"/><text class="actor actor-box" alignment-baseline="central" dominant-baseline="central" style="text-anchor: middle; font-size: 16px; font-weight: 400;" y="1706.5" x="354"><tspan dy="0" x="354">KafkaTradeConsumer</tspan></text></g><g><rect class="actor actor-bottom" ry="3" rx="3" name="Main" height="65" width="150" stroke="#666" fill="#eaeaea" y="1674" x="0"/><text class="actor actor-box" alignment-baseline="central" dominant-baseline="central" style="text-anchor: middle; font-size: 16px; font-weight: 400;" y="1706.5" x="75"><tspan dy="0" x="75">Main</tspan></text></g><g><line data-id="Kafka" data-et="life-line" name="Kafka" stroke="#999" stroke-width="0.5px" class="actor-line 200" y2="1674" x2="1715" y1="65" x1="1715" id="actor15"/><g data-id="Kafka" data-et="participant" id="root-15"><rect class="actor actor-top" ry="3" rx="3" name="Kafka" height="65" width="150" stroke="#666" fill="#eaeaea" y="0" x="1640"/><text class="actor actor-box" alignment-baseline="central" dominant-baseline="central" style="text-anchor: middle; font-size: 16px; font-weight: 400;" y="32.5" x="1715"><tspan dy="0" x="1715">Kafka</tspan></text></g></g><g><line data-id="MongoDBHelper" data-et="life-line" name="MongoDBHelper" stroke="#999" stroke-width="0.5px" class="actor-line 200" y2="1674" x2="1515" y1="65" x1="1515" id="actor14"/><g data-id="MongoDBHelper" data-et="participant" id="root-14"><rect class="actor actor-top" ry="3" rx="3" name="MongoDBHelper" height="65" width="150" stroke="#666" fill="#eaeaea" y="0" x="1440"/><text class="actor actor-box" alignment-baseline="central" dominant-baseline="central" style="text-anchor: middle; font-size: 16px; font-weight: 400;" y="32.5" x="1515"><tspan dy="0" x="1515">MongoDBHelper</tspan></text></g></g><g><line data-id="EventServices" data-et="life-line" name="EventServices" stroke="#999" stroke-width="0.5px" class="actor-line 200" y2="1674" x2="1268" y1="65" x1="1268" id="actor13"/><g data-id="EventServices" data-et="participant" id="root-13"><rect class="actor actor-top" ry="3" rx="3" name="EventServices" height="65" width="150" stroke="#666" fill="#eaeaea" y="0" x="1193"/><text class="actor actor-box" alignment-baseline="central" dominant-baseline="central" style="text-anchor: middle; font-size: 16px; font-weight: 400;" y="32.5" x="1268"><tspan dy="0" x="1268">EventServices</tspan></text></g></g><g><line data-id="EventProcessor" data-et="life-line" name="EventProcessor" stroke="#999" stroke-width="0.5px" class="actor-line 200" y2="1674" x2="967" y1="65" x1="967" id="actor12"/><g data-id="EventProcessor" data-et="participant" id="root-12"><rect class="actor actor-top" ry="3" rx="3" name="EventProcessor" height="65" width="150" stroke="#666" fill="#eaeaea" y="0" x="892"/><text class="actor actor-box" alignment-baseline="central" dominant-baseline="central" style="text-anchor: middle; font-size: 16px; font-weight: 400;" y="32.5" x="967"><tspan dy="0" x="967">EventProcessor</tspan></text></g></g><g><line data-id="Metrics" data-et="life-line" name="Metrics" stroke="#999" stroke-width="0.5px" class="actor-line 200" y2="1674" x2="767" y1="65" x1="767" id="actor11"/><g data-id="Metrics" data-et="participant" id="root-11"><rect class="actor actor-top" ry="3" rx="3" name="Metrics" height="65" width="150" stroke="#666" fill="#eaeaea" y="0" x="692"/><text class="actor actor-box" alignment-baseline="central" dominant-baseline="central" style="text-anchor: middle; font-size: 16px; font-weight: 400;" y="32.5" x="767"><tspan dy="0" x="767">Metrics</tspan></text></g></g><g><line data-id="ConfigLoader" data-et="life-line" name="ConfigLoader" stroke="#999" stroke-width="0.5px" class="actor-line 200" y2="1674" x2="567" y1="65" x1="567" id="actor10"/><g data-id="ConfigLoader" data-et="participant" id="root-10"><rect class="actor actor-top" ry="3" rx="3" name="ConfigLoader" height="65" width="150" stroke="#666" fill="#eaeaea" y="0" x="492"/><text class="actor actor-box" alignment-baseline="central" dominant-baseline="central" style="text-anchor: middle; font-size: 16px; font-weight: 400;" y="32.5" x="567"><tspan dy="0" x="567">ConfigLoader</tspan></text></g></g><g><line data-id="KafkaTradeConsumer" data-et="life-line" name="KafkaTradeConsumer" stroke="#999" stroke-width="0.5px" class="actor-line 200" y2="1674" x2="354" y1="65" x1="354" id="actor9"/><g data-id="KafkaTradeConsumer" data-et="participant" id="root-9"><rect class="actor actor-top" ry="3" rx="3" name="KafkaTradeConsumer" height="65" width="176" stroke="#666" fill="#eaeaea" y="0" x="266"/><text class="actor actor-box" alignment-baseline="central" dominant-baseline="central" style="text-anchor: middle; font-size: 16px; font-weight: 400;" y="32.5" x="354"><tspan dy="0" x="354">KafkaTradeConsumer</tspan></text></g></g><g><line data-id="Main" data-et="life-line" name="Main" stroke="#999" stroke-width="0.5px" class="actor-line 200" y2="1674" x2="75" y1="65" x1="75" id="actor8"/><g data-id="Main" data-et="participant" id="root-8"><rect class="actor actor-top" ry="3" rx="3" name="Main" height="65" width="150" stroke="#666" fill="#eaeaea" y="0" x="0"/><text class="actor actor-box" alignment-baseline="central" dominant-baseline="central" style="text-anchor: middle; font-size: 16px; font-weight: 400;" y="32.5" x="75"><tspan dy="0" x="75">Main</tspan></text></g></g><style>#export-svg{font-family:"trebuchet ms",verdana,arial,sans-serif;font-size:10px;fill:#333;}#export-svg .error-icon{fill:#ffffff;}#export-svg .error-text{fill:#000000;stroke:#000000;}#export-svg .edge-thickness-normal{stroke-width:1px;}#export-svg .edge-thickness-thick{stroke-width:3.5px;}#export-svg .edge-pattern-solid{stroke-dasharray:0;}#export-svg .edge-thickness-invisible{stroke-width:0;fill:none;}#export-svg .edge-pattern-dashed{stroke-dasharray:3;}#export-svg .edge-pattern-dotted{stroke-dasharray:2;}#export-svg .marker{fill:#000000;stroke:#000000;}#export-svg .marker.cross{stroke:#000000;}#export-svg svg{font-family:"trebuchet ms",verdana,arial,sans-serif;font-size:10px;}#export-svg p{margin:0;}#export-svg .actor{stroke:hsl(0, 0%, 70%);fill:#ffffff;}#export-svg text.actor&gt;tspan{fill:#333;stroke:none;}#export-svg .actor-line{stroke:hsl(0, 0%, 70%);}#export-svg .messageLine0{stroke-width:1.5;stroke-dasharray:none;stroke:#333;}#export-svg .messageLine1{stroke-width:1.5;stroke-dasharray:2,2;stroke:#333;}#export-svg #arrowhead path{fill:#333;stroke:#333;}#export-svg .sequenceNumber{fill:#ffffff;}#export-svg #sequencenumber{fill:#333;}#export-svg #crosshead path{fill:#333;stroke:#333;}#export-svg .messageText{fill:#333;stroke:none;}#export-svg .labelBox{stroke:hsl(0, 0%, 70%);fill:#ffffff;}#export-svg .labelText,#export-svg .labelText&gt;tspan{fill:#333;stroke:none;}#export-svg .loopText,#export-svg .loopText&gt;tspan{fill:#333;stroke:none;}#export-svg .loopLine{stroke-width:2px;stroke-dasharray:2,2;stroke:hsl(0, 0%, 70%);fill:hsl(0, 0%, 70%);}#export-svg .note{stroke:hsl(52.6829268293, 60%, 73.9215686275%);fill:#fff5ad;}#export-svg .noteText,#export-svg .noteText&gt;tspan{fill:#333;stroke:none;}#export-svg .activation0{fill:hsl(-120, 0%, 80%);stroke:hsl(-120, 0%, 70%);}#export-svg .activation1{fill:hsl(-120, 0%, 80%);stroke:hsl(-120, 0%, 70%);}#export-svg .activation2{fill:hsl(-120, 0%, 80%);stroke:hsl(-120, 0%, 70%);}#export-svg .actorPopupMenu{position:absolute;}#export-svg .actorPopupMenuPanel{position:absolute;fill:#ffffff;box-shadow:0px 8px 16px 0px rgba(0,0,0,0.2);filter:drop-shadow(3px 5px 2px rgb(0 0 0 / 0.4));}#export-svg .actor-man line{stroke:hsl(0, 0%, 70%);fill:#ffffff;}#export-svg .actor-man circle,#export-svg line{stroke:hsl(0, 0%, 70%);fill:#ffffff;stroke-width:2px;}#export-svg .node .neo-node{stroke:#000000;}#export-svg [data-look="neo"].node rect,#export-svg [data-look="neo"].cluster rect,#export-svg [data-look="neo"].node polygon{stroke:url(#export-svg-gradient);filter:drop-shadow( 0px 1px 2px rgba(0, 0, 0, 0.25));}#export-svg [data-look="neo"].node rect,#export-svg [data-look="neo"].node polygon,#export-svg [data-look="neo"].node path{stroke:url(#export-svg-gradient);filter:drop-shadow( 0px 1px 2px rgba(0, 0, 0, 0.25));}#export-svg [data-look="neo"].node .neo-line path{stroke:hsl(0, 0%, 70%);filter:none;}#export-svg [data-look="neo"].node circle{stroke:url(#export-svg-gradient);filter:drop-shadow( 0px 1px 2px rgba(0, 0, 0, 0.25));}#export-svg [data-look="neo"].node circle .state-start{fill:#000000;}#export-svg [data-look="neo"].statediagram-cluster rect{fill:#ffffff;stroke:url(#export-svg-gradient);stroke-width:1px;}#export-svg :root{--mermaid-font-family:"trebuchet ms",verdana,arial,sans-serif;}</style><g/><defs><symbol height="24" width="24" id="computer"><path d="M2 2v13h20v-13h-20zm18 11h-16v-9h16v9zm-10.228 6l.466-1h3.524l.467 1h-4.457zm14.228 3h-24l2-6h2.104l-1.33 4h18.45l-1.297-4h2.073l2 6zm-5-10h-14v-7h14v7z" transform="scale(.5)"/></symbol></defs><defs><symbol clip-rule="evenodd" fill-rule="evenodd" id="database"><path d="M12.258.001l.256.004.255.005.253.008.251.01.249.012.247.015.246.016.242.019.241.02.239.023.236.024.233.027.231.028.229.031.225.032.223.034.22.036.217.038.214.04.211.041.208.043.205.045.201.046.198.048.194.05.191.051.187.053.183.054.18.056.175.057.172.059.168.06.163.061.16.063.155.064.15.066.074.033.073.033.071.034.07.034.069.035.068.035.067.035.066.035.064.036.064.036.062.036.06.036.06.037.058.037.058.037.055.038.055.038.053.038.052.038.051.039.05.039.048.039.047.039.045.04.044.04.043.04.041.04.04.041.039.041.037.041.036.041.034.041.033.042.032.042.03.042.029.042.027.042.026.043.024.043.023.043.021.043.02.043.018.044.017.043.015.044.013.044.012.044.011.045.009.044.007.045.006.045.004.045.002.045.001.045v17l-.001.045-.002.045-.004.045-.006.045-.007.045-.009.044-.011.045-.012.044-.013.044-.015.044-.017.043-.018.044-.02.043-.021.043-.023.043-.024.043-.026.043-.027.042-.029.042-.03.042-.032.042-.033.042-.034.041-.036.041-.037.041-.039.041-.04.041-.041.04-.043.04-.044.04-.045.04-.047.039-.048.039-.05.039-.051.039-.052.038-.053.038-.055.038-.055.038-.058.037-.058.037-.06.037-.06.036-.062.036-.064.036-.064.036-.066.035-.067.035-.068.035-.069.035-.07.034-.071.034-.073.033-.074.033-.15.066-.155.064-.16.063-.163.061-.168.06-.172.059-.175.057-.18.056-.183.054-.187.053-.191.051-.194.05-.198.048-.201.046-.205.045-.208.043-.211.041-.214.04-.217.038-.22.036-.223.034-.225.032-.229.031-.231.028-.233.027-.236.024-.239.023-.241.02-.242.019-.246.016-.247.015-.249.012-.251.01-.253.008-.255.005-.256.004-.258.001-.258-.001-.256-.004-.255-.005-.253-.008-.251-.01-.249-.012-.247-.015-.245-.016-.243-.019-.241-.02-.238-.023-.236-.024-.234-.027-.231-.028-.228-.031-.226-.032-.223-.034-.22-.036-.217-.038-.214-.04-.211-.041-.208-.043-.204-.045-.201-.046-.198-.048-.195-.05-.19-.051-.187-.053-.184-.054-.179-.056-.176-.057-.172-.059-.167-.06-.164-.061-.159-.063-.155-.064-.151-.066-.074-.033-.072-.033-.072-.034-.07-.034-.069-.035-.068-.035-.067-.035-.066-.035-.064-.036-.063-.036-.062-.036-.061-.036-.06-.037-.058-.037-.057-.037-.056-.038-.055-.038-.053-.038-.052-.038-.051-.039-.049-.039-.049-.039-.046-.039-.046-.04-.044-.04-.043-.04-.041-.04-.04-.041-.039-.041-.037-.041-.036-.041-.034-.041-.033-.042-.032-.042-.03-.042-.029-.042-.027-.042-.026-.043-.024-.043-.023-.043-.021-.043-.02-.043-.018-.044-.017-.043-.015-.044-.013-.044-.012-.044-.011-.045-.009-.044-.007-.045-.006-.045-.004-.045-.002-.045-.001-.045v-17l.001-.045.002-.045.004-.045.006-.045.007-.045.009-.044.011-.045.012-.044.013-.044.015-.044.017-.043.018-.044.02-.043.021-.043.023-.043.024-.043.026-.043.027-.042.029-.042.03-.042.032-.042.033-.042.034-.041.036-.041.037-.041.039-.041.04-.041.041-.04.043-.04.044-.04.046-.04.046-.039.049-.039.049-.039.051-.039.052-.038.053-.038.055-.038.056-.038.057-.037.058-.037.06-.037.061-.036.062-.036.063-.036.064-.036.066-.035.067-.035.068-.035.069-.035.07-.034.072-.034.072-.033.074-.033.151-.066.155-.064.159-.063.164-.061.167-.06.172-.059.176-.057.179-.056.184-.054.187-.053.19-.051.195-.05.198-.048.201-.046.204-.045.208-.043.211-.041.214-.04.217-.038.22-.036.223-.034.226-.032.228-.031.231-.028.234-.027.236-.024.238-.023.241-.02.243-.019.245-.016.247-.015.249-.012.251-.01.253-.008.255-.005.256-.004.258-.001.258.001zm-9.258 20.499v.01l.001.021.003.021.004.022.005.021.006.022.007.022.009.023.01.022.011.023.012.023.013.023.015.023.016.024.017.023.018.024.019.024.021.024.022.025.023.024.024.025.052.049.056.05.061.051.066.051.07.051.075.051.079.052.084.052.088.052.092.052.097.052.102.051.105.052.11.052.114.051.119.051.123.051.127.05.131.05.135.05.139.048.144.049.147.047.152.047.155.047.16.045.163.045.167.043.171.043.176.041.178.041.183.039.187.039.19.037.194.035.197.035.202.033.204.031.209.03.212.029.216.027.219.025.222.024.226.021.23.02.233.018.236.016.24.015.243.012.246.01.249.008.253.005.256.004.259.001.26-.001.257-.004.254-.005.25-.008.247-.011.244-.012.241-.014.237-.016.233-.018.231-.021.226-.021.224-.024.22-.026.216-.027.212-.028.21-.031.205-.031.202-.034.198-.034.194-.036.191-.037.187-.039.183-.04.179-.04.175-.042.172-.043.168-.044.163-.045.16-.046.155-.046.152-.047.148-.048.143-.049.139-.049.136-.05.131-.05.126-.05.123-.051.118-.052.114-.051.11-.052.106-.052.101-.052.096-.052.092-.052.088-.053.083-.051.079-.052.074-.052.07-.051.065-.051.06-.051.056-.05.051-.05.023-.024.023-.025.021-.024.02-.024.019-.024.018-.024.017-.024.015-.023.014-.024.013-.023.012-.023.01-.023.01-.022.008-.022.006-.022.006-.022.004-.022.004-.021.001-.021.001-.021v-4.127l-.077.055-.08.053-.083.054-.085.053-.087.052-.09.052-.093.051-.095.05-.097.05-.1.049-.102.049-.105.048-.106.047-.109.047-.111.046-.114.045-.115.045-.118.044-.12.043-.122.042-.124.042-.126.041-.128.04-.13.04-.132.038-.134.038-.135.037-.138.037-.139.035-.142.035-.143.034-.144.033-.147.032-.148.031-.15.03-.151.03-.153.029-.154.027-.156.027-.158.026-.159.025-.161.024-.162.023-.163.022-.165.021-.166.02-.167.019-.169.018-.169.017-.171.016-.173.015-.173.014-.175.013-.175.012-.177.011-.178.01-.179.008-.179.008-.181.006-.182.005-.182.004-.184.003-.184.002h-.37l-.184-.002-.184-.003-.182-.004-.182-.005-.181-.006-.179-.008-.179-.008-.178-.01-.176-.011-.176-.012-.175-.013-.173-.014-.172-.015-.171-.016-.17-.017-.169-.018-.167-.019-.166-.02-.165-.021-.163-.022-.162-.023-.161-.024-.159-.025-.157-.026-.156-.027-.155-.027-.153-.029-.151-.03-.15-.03-.148-.031-.146-.032-.145-.033-.143-.034-.141-.035-.14-.035-.137-.037-.136-.037-.134-.038-.132-.038-.13-.04-.128-.04-.126-.041-.124-.042-.122-.042-.12-.044-.117-.043-.116-.045-.113-.045-.112-.046-.109-.047-.106-.047-.105-.048-.102-.049-.1-.049-.097-.05-.095-.05-.093-.052-.09-.051-.087-.052-.085-.053-.083-.054-.08-.054-.077-.054v4.127zm0-5.654v.011l.001.021.003.021.004.021.005.022.006.022.007.022.009.022.01.022.011.023.012.023.013.023.015.024.016.023.017.024.018.024.019.024.021.024.022.024.023.025.024.024.052.05.056.05.061.05.066.051.07.051.075.052.079.051.084.052.088.052.092.052.097.052.102.052.105.052.11.051.114.051.119.052.123.05.127.051.131.05.135.049.139.049.144.048.147.048.152.047.155.046.16.045.163.045.167.044.171.042.176.042.178.04.183.04.187.038.19.037.194.036.197.034.202.033.204.032.209.03.212.028.216.027.219.025.222.024.226.022.23.02.233.018.236.016.24.014.243.012.246.01.249.008.253.006.256.003.259.001.26-.001.257-.003.254-.006.25-.008.247-.01.244-.012.241-.015.237-.016.233-.018.231-.02.226-.022.224-.024.22-.025.216-.027.212-.029.21-.03.205-.032.202-.033.198-.035.194-.036.191-.037.187-.039.183-.039.179-.041.175-.042.172-.043.168-.044.163-.045.16-.045.155-.047.152-.047.148-.048.143-.048.139-.05.136-.049.131-.05.126-.051.123-.051.118-.051.114-.052.11-.052.106-.052.101-.052.096-.052.092-.052.088-.052.083-.052.079-.052.074-.051.07-.052.065-.051.06-.05.056-.051.051-.049.023-.025.023-.024.021-.025.02-.024.019-.024.018-.024.017-.024.015-.023.014-.023.013-.024.012-.022.01-.023.01-.023.008-.022.006-.022.006-.022.004-.021.004-.022.001-.021.001-.021v-4.139l-.077.054-.08.054-.083.054-.085.052-.087.053-.09.051-.093.051-.095.051-.097.05-.1.049-.102.049-.105.048-.106.047-.109.047-.111.046-.114.045-.115.044-.118.044-.12.044-.122.042-.124.042-.126.041-.128.04-.13.039-.132.039-.134.038-.135.037-.138.036-.139.036-.142.035-.143.033-.144.033-.147.033-.148.031-.15.03-.151.03-.153.028-.154.028-.156.027-.158.026-.159.025-.161.024-.162.023-.163.022-.165.021-.166.02-.167.019-.169.018-.169.017-.171.016-.173.015-.173.014-.175.013-.175.012-.177.011-.178.009-.179.009-.179.007-.181.007-.182.005-.182.004-.184.003-.184.002h-.37l-.184-.002-.184-.003-.182-.004-.182-.005-.181-.007-.179-.007-.179-.009-.178-.009-.176-.011-.176-.012-.175-.013-.173-.014-.172-.015-.171-.016-.17-.017-.169-.018-.167-.019-.166-.02-.165-.021-.163-.022-.162-.023-.161-.024-.159-.025-.157-.026-.156-.027-.155-.028-.153-.028-.151-.03-.15-.03-.148-.031-.146-.033-.145-.033-.143-.033-.141-.035-.14-.036-.137-.036-.136-.037-.134-.038-.132-.039-.13-.039-.128-.04-.126-.041-.124-.042-.122-.043-.12-.043-.117-.044-.116-.044-.113-.046-.112-.046-.109-.046-.106-.047-.105-.048-.102-.049-.1-.049-.097-.05-.095-.051-.093-.051-.09-.051-.087-.053-.085-.052-.083-.054-.08-.054-.077-.054v4.139zm0-5.666v.011l.001.02.003.022.004.021.005.022.006.021.007.022.009.023.01.022.011.023.012.023.013.023.015.023.016.024.017.024.018.023.019.024.021.025.022.024.023.024.024.025.052.05.056.05.061.05.066.051.07.051.075.052.079.051.084.052.088.052.092.052.097.052.102.052.105.051.11.052.114.051.119.051.123.051.127.05.131.05.135.05.139.049.144.048.147.048.152.047.155.046.16.045.163.045.167.043.171.043.176.042.178.04.183.04.187.038.19.037.194.036.197.034.202.033.204.032.209.03.212.028.216.027.219.025.222.024.226.021.23.02.233.018.236.017.24.014.243.012.246.01.249.008.253.006.256.003.259.001.26-.001.257-.003.254-.006.25-.008.247-.01.244-.013.241-.014.237-.016.233-.018.231-.02.226-.022.224-.024.22-.025.216-.027.212-.029.21-.03.205-.032.202-.033.198-.035.194-.036.191-.037.187-.039.183-.039.179-.041.175-.042.172-.043.168-.044.163-.045.16-.045.155-.047.152-.047.148-.048.143-.049.139-.049.136-.049.131-.051.126-.05.123-.051.118-.052.114-.051.11-.052.106-.052.101-.052.096-.052.092-.052.088-.052.083-.052.079-.052.074-.052.07-.051.065-.051.06-.051.056-.05.051-.049.023-.025.023-.025.021-.024.02-.024.019-.024.018-.024.017-.024.015-.023.014-.024.013-.023.012-.023.01-.022.01-.023.008-.022.006-.022.006-.022.004-.022.004-.021.001-.021.001-.021v-4.153l-.077.054-.08.054-.083.053-.085.053-.087.053-.09.051-.093.051-.095.051-.097.05-.1.049-.102.048-.105.048-.106.048-.109.046-.111.046-.114.046-.115.044-.118.044-.12.043-.122.043-.124.042-.126.041-.128.04-.13.039-.132.039-.134.038-.135.037-.138.036-.139.036-.142.034-.143.034-.144.033-.147.032-.148.032-.15.03-.151.03-.153.028-.154.028-.156.027-.158.026-.159.024-.161.024-.162.023-.163.023-.165.021-.166.02-.167.019-.169.018-.169.017-.171.016-.173.015-.173.014-.175.013-.175.012-.177.01-.178.01-.179.009-.179.007-.181.006-.182.006-.182.004-.184.003-.184.001-.185.001-.185-.001-.184-.001-.184-.003-.182-.004-.182-.006-.181-.006-.179-.007-.179-.009-.178-.01-.176-.01-.176-.012-.175-.013-.173-.014-.172-.015-.171-.016-.17-.017-.169-.018-.167-.019-.166-.02-.165-.021-.163-.023-.162-.023-.161-.024-.159-.024-.157-.026-.156-.027-.155-.028-.153-.028-.151-.03-.15-.03-.148-.032-.146-.032-.145-.033-.143-.034-.141-.034-.14-.036-.137-.036-.136-.037-.134-.038-.132-.039-.13-.039-.128-.041-.126-.041-.124-.041-.122-.043-.12-.043-.117-.044-.116-.044-.113-.046-.112-.046-.109-.046-.106-.048-.105-.048-.102-.048-.1-.05-.097-.049-.095-.051-.093-.051-.09-.052-.087-.052-.085-.053-.083-.053-.08-.054-.077-.054v4.153zm8.74-8.179l-.257.004-.254.005-.25.008-.247.011-.244.012-.241.014-.237.016-.233.018-.231.021-.226.022-.224.023-.22.026-.216.027-.212.028-.21.031-.205.032-.202.033-.198.034-.194.036-.191.038-.187.038-.183.04-.179.041-.175.042-.172.043-.168.043-.163.045-.16.046-.155.046-.152.048-.148.048-.143.048-.139.049-.136.05-.131.05-.126.051-.123.051-.118.051-.114.052-.11.052-.106.052-.101.052-.096.052-.092.052-.088.052-.083.052-.079.052-.074.051-.07.052-.065.051-.06.05-.056.05-.051.05-.023.025-.023.024-.021.024-.02.025-.019.024-.018.024-.017.023-.015.024-.014.023-.013.023-.012.023-.01.023-.01.022-.008.022-.006.023-.006.021-.004.022-.004.021-.001.021-.001.021.001.021.001.021.004.021.004.022.006.021.006.023.008.022.01.022.01.023.012.023.013.023.014.023.015.024.017.023.018.024.019.024.02.025.021.024.023.024.023.025.051.05.056.05.06.05.065.051.07.052.074.051.079.052.083.052.088.052.092.052.096.052.101.052.106.052.11.052.114.052.118.051.123.051.126.051.131.05.136.05.139.049.143.048.148.048.152.048.155.046.16.046.163.045.168.043.172.043.175.042.179.041.183.04.187.038.191.038.194.036.198.034.202.033.205.032.21.031.212.028.216.027.22.026.224.023.226.022.231.021.233.018.237.016.241.014.244.012.247.011.25.008.254.005.257.004.26.001.26-.001.257-.004.254-.005.25-.008.247-.011.244-.012.241-.014.237-.016.233-.018.231-.021.226-.022.224-.023.22-.026.216-.027.212-.028.21-.031.205-.032.202-.033.198-.034.194-.036.191-.038.187-.038.183-.04.179-.041.175-.042.172-.043.168-.043.163-.045.16-.046.155-.046.152-.048.148-.048.143-.048.139-.049.136-.05.131-.05.126-.051.123-.051.118-.051.114-.052.11-.052.106-.052.101-.052.096-.052.092-.052.088-.052.083-.052.079-.052.074-.051.07-.052.065-.051.06-.05.056-.05.051-.05.023-.025.023-.024.021-.024.02-.025.019-.024.018-.024.017-.023.015-.024.014-.023.013-.023.012-.023.01-.023.01-.022.008-.022.006-.023.006-.021.004-.022.004-.021.001-.021.001-.021-.001-.021-.001-.021-.004-.021-.004-.022-.006-.021-.006-.023-.008-.022-.01-.022-.01-.023-.012-.023-.013-.023-.014-.023-.015-.024-.017-.023-.018-.024-.019-.024-.02-.025-.021-.024-.023-.024-.023-.025-.051-.05-.056-.05-.06-.05-.065-.051-.07-.052-.074-.051-.079-.052-.083-.052-.088-.052-.092-.052-.096-.052-.101-.052-.106-.052-.11-.052-.114-.052-.118-.051-.123-.051-.126-.051-.131-.05-.136-.05-.139-.049-.143-.048-.148-.048-.152-.048-.155-.046-.16-.046-.163-.045-.168-.043-.172-.043-.175-.042-.179-.041-.183-.04-.187-.038-.191-.038-.194-.036-.198-.034-.202-.033-.205-.032-.21-.031-.212-.028-.216-.027-.22-.026-.224-.023-.226-.022-.231-.021-.233-.018-.237-.016-.241-.014-.244-.012-.247-.011-.25-.008-.254-.005-.257-.004-.26-.001-.26.001z" transform="scale(.5)"/></symbol></defs><defs><symbol height="24" width="24" id="clock"><path d="M12 2c5.514 0 10 4.486 10 10s-4.486 10-10 10-10-4.486-10-10 4.486-10 10-10zm0-2c-6.627 0-12 5.373-12 12s5.373 12 12 12 12-5.373 12-12-5.373-12-12-12zm5.848 12.459c.202.038.202.333.001.372-1.907.361-6.045 1.111-6.547 1.111-.719 0-1.301-.582-1.301-1.301 0-.512.77-5.447 1.125-7.445.034-.192.312-.181.343.014l.985 6.238 5.394 1.011z" transform="scale(.5)"/></symbol></defs><defs><marker orient="auto-start-reverse" markerHeight="12" markerWidth="12" markerUnits="userSpaceOnUse" refY="5" refX="7.9" id="arrowhead"><path d="M -1 0 L 10 5 L 0 10 z"/></marker></defs><defs><marker refY="4.5" refX="4" orient="auto" markerHeight="8" markerWidth="15" id="crosshead"><path style="stroke-dasharray: 0, 0;" d="M 1,2 L 6,7 M 6,2 L 1,7" stroke-width="1pt" stroke="#000000" fill="none"/></marker></defs><defs><marker orient="auto" markerHeight="28" markerWidth="20" refY="7" refX="15.5" id="filled-head"><path d="M 18,7 L9,13 L14,7 L9,1 Z"/></marker></defs><defs><marker orient="auto" markerHeight="40" markerWidth="60" refY="15" refX="15" id="sequencenumber"><circle r="6" cy="15" cx="15"/></marker></defs><g data-id="ief91435bc4" data-et="control-structure"><line class="loopLine" y2="1018" x2="1726" y1="1018" x1="242.5"/><line class="loopLine" y2="1225" x2="1726" y1="1018" x1="1726"/><line class="loopLine" y2="1225" x2="1726" y1="1225" x1="242.5"/><line class="loopLine" y2="1225" x2="242.5" y1="1018" x1="242.5"/><polygon class="labelBox" points="242.5,1018 292.5,1018 292.5,1031 284.1,1038 242.5,1038"/><text class="labelText" style="font-size: 16px; font-weight: 400;" alignment-baseline="middle" dominant-baseline="middle" text-anchor="middle" y="1031" x="268">alt</text><text class="loopText" style="font-size: 16px; font-weight: 400;" text-anchor="middle" y="1036" x="1009.25"><tspan x="1009.25">[Processing failed]</tspan></text></g><g data-id="i03fce7cfcd" data-et="control-structure"><line class="loopLine" y2="649" x2="1736" y1="649" x1="232.5"/><line class="loopLine" y2="1235" x2="1736" y1="649" x1="1736"/><line class="loopLine" y2="1235" x2="1736" y1="1235" x1="232.5"/><line class="loopLine" y2="1235" x2="232.5" y1="649" x1="232.5"/><polygon class="labelBox" points="232.5,649 282.5,649 282.5,662 274.1,669 232.5,669"/><text class="labelText" style="font-size: 16px; font-weight: 400;" alignment-baseline="middle" dominant-baseline="middle" text-anchor="middle" y="662" x="258">loop</text><text class="loopText" style="font-size: 16px; font-weight: 400;" text-anchor="middle" y="667" x="1009.25"><tspan x="1009.25">[For each message]</tspan></text></g><g data-id="if0a14a509b" data-et="control-structure"><line class="loopLine" y2="560" x2="1746" y1="560" x1="222.5"/><line class="loopLine" y2="1482" x2="1746" y1="560" x1="1746"/><line class="loopLine" y2="1482" x2="1746" y1="1482" x1="222.5"/><line class="loopLine" y2="1482" x2="222.5" y1="560" x1="222.5"/><line style="stroke-dasharray: 3, 3;" class="loopLine" y2="1338" x2="1746" y1="1338" x1="222.5"/><polygon class="labelBox" points="222.5,560 272.5,560 272.5,573 264.1,580 222.5,580"/><text class="labelText" style="font-size: 16px; font-weight: 400;" alignment-baseline="middle" dominant-baseline="middle" text-anchor="middle" y="573" x="248">alt</text><text class="loopText" style="font-size: 16px; font-weight: 400;" text-anchor="middle" y="578" x="1009.25"><tspan x="1009.25">[Messages received]</tspan></text><text class="loopText" style="font-size: 16px; font-weight: 400;" text-anchor="middle" y="1356" x="984.25">[No messages]</text></g><g data-id="i46aca9d1ca" data-et="control-structure"><line class="loopLine" y2="471" x2="1756" y1="471" x1="212.5"/><line class="loopLine" y2="1492" x2="1756" y1="471" x1="1756"/><line class="loopLine" y2="1492" x2="1756" y1="1492" x1="212.5"/><line class="loopLine" y2="1492" x2="212.5" y1="471" x1="212.5"/><polygon class="labelBox" points="212.5,471 262.5,471 262.5,484 254.1,491 212.5,491"/><text class="labelText" style="font-size: 16px; font-weight: 400;" alignment-baseline="middle" dominant-baseline="middle" text-anchor="middle" y="484" x="238">loop</text><text class="loopText" style="font-size: 16px; font-weight: 400;" text-anchor="middle" y="489" x="1009.25"><tspan x="1009.25">[While running]</tspan></text></g><text dy="1em" class="messageText" style="font-size: 16px; font-weight: 400;" alignment-baseline="middle" dominant-baseline="middle" text-anchor="middle" y="80" x="320">Create ConfigLoader</text><line style="fill: none;" marker-end="url(#arrowhead)" stroke="none" stroke-width="2" data-to="ConfigLoader" data-from="Main" data-id="i2d6d2b2d85" data-et="message" class="messageLine0" y2="109" x2="563" y1="109" x1="76"/><text dy="1em" class="messageText" style="font-size: 16px; font-weight: 400;" alignment-baseline="middle" dominant-baseline="middle" text-anchor="middle" y="124" x="420">Create Metrics</text><line style="fill: none;" marker-end="url(#arrowhead)" stroke="none" stroke-width="2" data-to="Metrics" data-from="Main" data-id="i90cae40e7e" data-et="message" class="messageLine0" y2="153" x2="763" y1="153" x1="76"/><text dy="1em" class="messageText" style="font-size: 16px; font-weight: 400;" alignment-baseline="middle" dominant-baseline="middle" text-anchor="middle" y="168" x="794">Create MongoDBHelper</text><line style="fill: none;" marker-end="url(#arrowhead)" stroke="none" stroke-width="2" data-to="MongoDBHelper" data-from="Main" data-id="i5441624f1c" data-et="message" class="messageLine0" y2="197" x2="1511" y1="197" x1="76"/><text dy="1em" class="messageText" style="font-size: 16px; font-weight: 400;" alignment-baseline="middle" dominant-baseline="middle" text-anchor="middle" y="212" x="670">Create EventServices</text><line style="fill: none;" marker-end="url(#arrowhead)" stroke="none" stroke-width="2" data-to="EventServices" data-from="Main" data-id="iafd6a4ab56" data-et="message" class="messageLine0" y2="241" x2="1264" y1="241" x1="76"/><text dy="1em" class="messageText" style="font-size: 16px; font-weight: 400;" alignment-baseline="middle" dominant-baseline="middle" text-anchor="middle" y="256" x="520">Create EventProcessor</text><line style="fill: none;" marker-end="url(#arrowhead)" stroke="none" stroke-width="2" data-to="EventProcessor" data-from="Main" data-id="ibff5488068" data-et="message" class="messageLine0" y2="285" x2="963" y1="285" x1="76"/><text dy="1em" class="messageText" style="font-size: 16px; font-weight: 400;" alignment-baseline="middle" dominant-baseline="middle" text-anchor="middle" y="300" x="213">Create KafkaTradeConsumer</text><line style="fill: none;" marker-end="url(#arrowhead)" stroke="none" stroke-width="2" data-to="KafkaTradeConsumer" data-from="Main" data-id="ifbd5d8d3d8" data-et="message" class="messageLine0" y2="329" x2="350" y1="329" x1="76"/><text dy="1em" class="messageText" style="font-size: 16px; font-weight: 400;" alignment-baseline="middle" dominant-baseline="middle" text-anchor="middle" y="344" x="213">setup_consumer()</text><line style="fill: none;" marker-end="url(#arrowhead)" stroke="none" stroke-width="2" data-to="KafkaTradeConsumer" data-from="Main" data-id="idc0a026f25" data-et="message" class="messageLine0" y2="373" x2="350" y1="373" x1="76"/><text dy="1em" class="messageText" style="font-size: 16px; font-weight: 400;" alignment-baseline="middle" dominant-baseline="middle" text-anchor="middle" y="388" x="1033">Subscribe to topic</text><line style="fill: none;" marker-end="url(#arrowhead)" stroke="none" stroke-width="2" data-to="Kafka" data-from="KafkaTradeConsumer" data-id="i63178c6c73" data-et="message" class="messageLine0" y2="417" x2="1711" y1="417" x1="355"/><text dy="1em" class="messageText" style="font-size: 16px; font-weight: 400;" alignment-baseline="middle" dominant-baseline="middle" text-anchor="middle" y="432" x="213">consume_messages()</text><line style="fill: none;" marker-end="url(#arrowhead)" stroke="none" stroke-width="2" data-to="KafkaTradeConsumer" data-from="Main" data-id="i3bca1f87f1" data-et="message" class="messageLine0" y2="461" x2="350" y1="461" x1="76"/><text dy="1em" class="messageText" style="font-size: 16px; font-weight: 400;" alignment-baseline="middle" dominant-baseline="middle" text-anchor="middle" y="521" x="1033">Consume messages</text><line style="fill: none;" marker-end="url(#arrowhead)" stroke="none" stroke-width="2" data-to="Kafka" data-from="KafkaTradeConsumer" data-id="id4097a2fe1" data-et="message" class="messageLine0" y2="550" x2="1711" y1="550" x1="355"/><text dy="1em" class="messageText" style="font-size: 16px; font-weight: 400;" alignment-baseline="middle" dominant-baseline="middle" text-anchor="middle" y="610" x="1036">Return messages</text><line marker-end="url(#arrowhead)" style="stroke-dasharray: 3, 3; fill: none;" stroke="none" stroke-width="2" data-to="KafkaTradeConsumer" data-from="Kafka" data-id="i5b2f44b86c" data-et="message" class="messageLine1" y2="639" x2="358" y1="639" x1="1714"/><text dy="1em" class="messageText" style="font-size: 16px; font-weight: 400;" alignment-baseline="middle" dominant-baseline="middle" text-anchor="middle" y="699" x="659">process_message(msg)</text><line style="fill: none;" marker-end="url(#arrowhead)" stroke="none" stroke-width="2" data-to="EventProcessor" data-from="KafkaTradeConsumer" data-id="i7fcceb08ed" data-et="message" class="messageLine0" y2="728" x2="963" y1="728" x1="355"/><text dy="1em" class="messageText" style="font-size: 16px; font-weight: 400;" alignment-baseline="middle" dominant-baseline="middle" text-anchor="middle" y="743" x="968">validate_message(message)</text><path style="fill: none;" marker-end="url(#arrowhead)" stroke="none" stroke-width="2" data-to="EventProcessor" data-from="EventProcessor" data-id="i7de460331a" data-et="message" class="messageLine0" d="M 968,772 C 1028,762 1028,802 968,792"/><text dy="1em" class="messageText" style="font-size: 16px; font-weight: 400;" alignment-baseline="middle" dominant-baseline="middle" text-anchor="middle" y="817" x="968">transform_message(trade_event)</text><path style="fill: none;" marker-end="url(#arrowhead)" stroke="none" stroke-width="2" data-to="EventProcessor" data-from="EventProcessor" data-id="ibf418f454a" data-et="message" class="messageLine0" d="M 968,846 C 1028,836 1028,876 968,866"/><text dy="1em" class="messageText" style="font-size: 16px; font-weight: 400;" alignment-baseline="middle" dominant-baseline="middle" text-anchor="middle" y="891" x="1116">insert_event(transformed_event)</text><line style="fill: none;" marker-end="url(#arrowhead)" stroke="none" stroke-width="2" data-to="EventServices" data-from="EventProcessor" data-id="i1cbd35430e" data-et="message" class="messageLine0" y2="920" x2="1264" y1="920" x1="968"/><text dy="1em" class="messageText" style="font-size: 16px; font-weight: 400;" alignment-baseline="middle" dominant-baseline="middle" text-anchor="middle" y="935" x="1390">Insert event to MongoDB</text><line style="fill: none;" marker-end="url(#arrowhead)" stroke="none" stroke-width="2" data-to="MongoDBHelper" data-from="EventServices" data-id="i5dde002584" data-et="message" class="messageLine0" y2="964" x2="1511" y1="964" x1="1269"/><text dy="1em" class="messageText" style="font-size: 16px; font-weight: 400;" alignment-baseline="middle" dominant-baseline="middle" text-anchor="middle" y="979" x="662">Return processing result</text><line marker-end="url(#arrowhead)" style="stroke-dasharray: 3, 3; fill: none;" stroke="none" stroke-width="2" data-to="KafkaTradeConsumer" data-from="EventProcessor" data-id="ideee14928f" data-et="message" class="messageLine1" y2="1008" x2="358" y1="1008" x1="966"/><text dy="1em" class="messageText" style="font-size: 16px; font-weight: 400;" alignment-baseline="middle" dominant-baseline="middle" text-anchor="middle" y="1068" x="355">send_to_dlq(msg, error_info)</text><path style="fill: none;" marker-end="url(#arrowhead)" stroke="none" stroke-width="2" data-to="KafkaTradeConsumer" data-from="KafkaTradeConsumer" data-id="ia275d24cda" data-et="message" class="messageLine0" d="M 355,1097 C 415,1087 415,1127 355,1117"/><text dy="1em" class="messageText" style="font-size: 16px; font-weight: 400;" alignment-baseline="middle" dominant-baseline="middle" text-anchor="middle" y="1142" x="1033">Produce to DLQ topic</text><line style="fill: none;" marker-end="url(#arrowhead)" stroke="none" stroke-width="2" data-to="Kafka" data-from="KafkaTradeConsumer" data-id="i88cc9c04ed" data-et="message" class="messageLine0" y2="1171" x2="1711" y1="1171" x1="355"/><text dy="1em" class="messageText" style="font-size: 16px; font-weight: 400;" alignment-baseline="middle" dominant-baseline="middle" text-anchor="middle" y="1186" x="559">record_dlq_message()</text><line style="fill: none;" marker-end="url(#arrowhead)" stroke="none" stroke-width="2" data-to="Metrics" data-from="KafkaTradeConsumer" data-id="ide8c6390bf" data-et="message" class="messageLine0" y2="1215" x2="763" y1="1215" x1="355"/><text dy="1em" class="messageText" style="font-size: 16px; font-weight: 400;" alignment-baseline="middle" dominant-baseline="middle" text-anchor="middle" y="1250" x="559">record_metrics(processed_count, processing_time)</text><line style="fill: none;" marker-end="url(#arrowhead)" stroke="none" stroke-width="2" data-to="Metrics" data-from="KafkaTradeConsumer" data-id="i46becea677" data-et="message" class="messageLine0" y2="1279" x2="763" y1="1279" x1="355"/><text dy="1em" class="messageText" style="font-size: 16px; font-weight: 400;" alignment-baseline="middle" dominant-baseline="middle" text-anchor="middle" y="1294" x="1033">Commit offsets</text><line style="fill: none;" marker-end="url(#arrowhead)" stroke="none" stroke-width="2" data-to="Kafka" data-from="KafkaTradeConsumer" data-id="i74b51692f1" data-et="message" class="messageLine0" y2="1323" x2="1711" y1="1323" x1="355"/><text dy="1em" class="messageText" style="font-size: 16px; font-weight: 400;" alignment-baseline="middle" dominant-baseline="middle" text-anchor="middle" y="1383" x="355">Increment no_message_count</text><path style="fill: none;" marker-end="url(#arrowhead)" stroke="none" stroke-width="2" data-to="KafkaTradeConsumer" data-from="KafkaTradeConsumer" data-id="i095478f599" data-et="message" class="messageLine0" d="M 355,1412 C 415,1402 415,1442 355,1432"/><text dy="1em" class="messageText" style="font-size: 16px; font-weight: 400;" alignment-baseline="middle" dominant-baseline="middle" text-anchor="middle" y="1507" x="213">stop()</text><line style="fill: none;" marker-end="url(#arrowhead)" stroke="none" stroke-width="2" data-to="KafkaTradeConsumer" data-from="Main" data-id="id2a2c47c87" data-et="message" class="messageLine0" y2="1536" x2="350" y1="1536" x1="76"/><text dy="1em" class="messageText" style="font-size: 16px; font-weight: 400;" alignment-baseline="middle" dominant-baseline="middle" text-anchor="middle" y="1551" x="355">print_final_stats()</text><path style="fill: none;" marker-end="url(#arrowhead)" stroke="none" stroke-width="2" data-to="KafkaTradeConsumer" data-from="KafkaTradeConsumer" data-id="i78abce2cbb" data-et="message" class="messageLine0" d="M 355,1580 C 415,1570 415,1610 355,1600"/><text dy="1em" class="messageText" style="font-size: 16px; font-weight: 400;" alignment-baseline="middle" dominant-baseline="middle" text-anchor="middle" y="1625" x="1033">Close consumer and producer</text><line style="fill: none;" marker-end="url(#arrowhead)" stroke="none" stroke-width="2" data-to="Kafka" data-from="KafkaTradeConsumer" data-id="i85e08f3c1b" data-et="message" class="messageLine0" y2="1654" x2="1711" y1="1654" x1="355"/></svg>